<?xml version="1.0" encoding="utf-8"?>
<svg width="500px" viewBox="0 0 834 126" xmlns="http://www.w3.org/2000/svg" fill-rule="evenodd" clip-rule="evenodd" stroke-linejoin="round" stroke-miterlimit="1.414">
	<path d="M223.036 110.987c.975.98 2.053 1.944 3.23 2.903a26.73 26.73 0 0 0 3.893 2.602c1.416.783 3.007 1.421 4.77 1.908 1.762.487 3.748.736 5.941.736 3.675 0 7.004-.881 9.984-2.644 2.986-1.757 5.547-4.22 7.678-7.377 2.126-3.157 3.774-6.9 4.951-11.228 1.172-4.334 1.762-9.067 1.762-14.21 0-3.914-.601-7.579-1.798-11.011-1.203-3.427-2.836-6.397-4.915-8.917-2.084-2.519-4.526-4.51-7.341-5.982a19.182 19.182 0 0 0-8.994-2.204c-1.763 0-3.588.244-5.469.737a25.794 25.794 0 0 0-5.392 2.058 27.072 27.072 0 0 0-4.738 3.074c-1.446 1.177-2.628 2.426-3.562 3.748v45.807zM207.396 9.098l11.089-4.406h4.551v55.133c1.271-2.209 2.945-4.298 5.029-6.278a39.843 39.843 0 0 1 6.791-5.215 36.935 36.935 0 0 1 7.636-3.557c2.644-.881 5.185-1.322 7.637-1.322 4.593 0 8.818.928 12.659 2.789a31.11 31.11 0 0 1 9.949 7.559c2.783 3.183 4.966 6.905 6.532 11.156 1.56 4.261 2.348 8.808 2.348 13.66 0 4.355-.529 8.523-1.581 12.515-1.053 3.986-2.52 7.714-4.402 11.192a45.443 45.443 0 0 1-6.868 9.508 44.727 44.727 0 0 1-8.912 7.341 43.181 43.181 0 0 1-10.503 4.733c-3.743 1.125-7.641 1.69-11.711 1.69-5.822 0-11.322-.757-16.511-2.276-5.19-1.519-9.762-3.888-13.733-7.118V9.098zM300.052 45.066h15.562v14.899a68.954 68.954 0 0 1 4.92-6.309c1.763-2.007 3.598-3.769 5.511-5.283 1.902-1.519 3.878-2.722 5.905-3.603 2.032-.881 4.095-1.322 6.205-1.322 1.711 0 3.297.259 4.769.773 1.467.518 2.753 1.197 3.857 2.052 1.099.861 1.97 1.867 2.603 3.012a7.4 7.4 0 0 1 .954 3.634c0 2.546-.794 4.464-2.385 5.765-1.586 1.296-3.805 1.944-6.641 1.944-1.763 0-3.167-.181-4.22-.549a19.069 19.069 0 0 1-2.867-1.25 27.898 27.898 0 0 0-2.602-1.249c-.881-.363-1.986-.549-3.307-.549-1.027 0-2.064.305-3.116.917-1.058.612-2.11 1.472-3.162 2.566-1.053 1.104-2.116 2.4-3.194 3.894a79.328 79.328 0 0 0-3.23 4.883v54.615h-15.562v-78.84zM406.513 77.948a150.526 150.526 0 0 0-7.014 2.494 85.731 85.731 0 0 0-7.118 3.121 70.069 70.069 0 0 0-6.641 3.748c-2.105 1.343-3.955 2.773-5.542 4.292-1.591 1.519-2.851 3.126-3.784 4.842-.928 1.716-1.395 3.5-1.395 5.366 0 1.903.358 3.722 1.068 5.464.71 1.737 1.649 3.25 2.826 4.552a13.48 13.48 0 0 0 4.074 3.084 10.771 10.771 0 0 0 4.811 1.136c1.758 0 3.437-.234 5.024-.695a25.223 25.223 0 0 0 4.624-1.872 40.898 40.898 0 0 0 4.479-2.758 184.057 184.057 0 0 0 4.588-3.333V77.948zm15.708 45.952h-15.708v-10.793a218.269 218.269 0 0 0-5.469 4.334 44.813 44.813 0 0 1-5.802 4.038c-2.078 1.224-4.38 2.214-6.9 2.976-2.519.752-5.443 1.135-8.766 1.135-3.09 0-5.874-.502-8.377-1.508-2.489-1.001-4.62-2.385-6.382-4.142-1.763-1.763-3.111-3.847-4.033-6.242-.933-2.395-1.4-4.992-1.4-7.776 0-3.385.674-6.428 2.022-9.145 1.348-2.716 3.178-5.148 5.5-7.299 2.328-2.157 5.044-4.07 8.155-5.734a85.377 85.377 0 0 1 9.87-4.474 122.174 122.174 0 0 1 10.752-3.525 438.27 438.27 0 0 1 10.83-2.867v-4.914c0-3.567-.353-6.594-1.063-9.067-.71-2.468-1.726-4.464-3.048-5.983a11.243 11.243 0 0 0-4.811-3.266c-1.882-.658-3.997-.985-6.345-.985-2.644 0-4.796.337-6.46 1.022-1.669.689-2.976 1.586-3.929 2.716a9.169 9.169 0 0 0-1.944 3.852 18.637 18.637 0 0 0-.514 4.37c0 1.374-.109 2.691-.331 3.966-.218 1.275-.623 2.385-1.214 3.339-.585.953-1.379 1.721-2.384 2.312-1.001.585-2.286.881-3.857.881-1.219 0-2.333-.233-3.334-.695a7.77 7.77 0 0 1-2.607-1.949c-.736-.829-1.296-1.809-1.69-2.939-.394-1.12-.591-2.349-.591-3.666 0-2.597.86-5.018 2.571-7.268 1.711-2.25 4.018-4.194 6.9-5.837 2.888-1.633 6.263-2.934 10.135-3.888 3.867-.954 7.927-1.431 12.183-1.431 5.189 0 9.57.498 13.136 1.504 3.577 1.005 6.46 2.415 8.668 4.219 2.198 1.81 3.795 4.018 4.77 6.61.979 2.592 1.467 5.454 1.467 8.585V123.9zM502.689 70.1c0-3.09-.571-5.915-1.722-8.482-1.15-2.571-2.659-4.764-4.515-6.568a20.772 20.772 0 0 0-6.314-4.225c-2.349-1-4.723-1.503-7.123-1.503-3.126 0-6.055.783-8.767 2.348-2.721 1.571-5.096 3.748-7.122 6.532-2.033 2.794-3.635 6.133-4.806 10.026-1.177 3.888-1.763 8.16-1.763 12.805 0 4.992.648 9.684 1.944 14.059 1.296 4.381 3.069 8.196 5.319 11.452 2.255 3.256 4.884 5.822 7.896 7.709 3.006 1.887 6.226 2.83 9.647 2.83 1.664 0 3.318-.223 4.956-.663a26.1 26.1 0 0 0 4.702-1.763 27.8 27.8 0 0 0 4.22-2.566c1.322-.985 2.473-2.011 3.448-3.09V70.1zm0 46.102a38.59 38.59 0 0 1-5.874 3.919 44.665 44.665 0 0 1-6.563 2.94 46.751 46.751 0 0 1-6.9 1.871c-2.328.441-4.588.664-6.797.664-4.645 0-8.989-1.079-13.027-3.23-4.039-2.157-7.564-5.07-10.571-8.74-3.012-3.671-5.386-7.927-7.123-12.769-1.736-4.847-2.602-9.959-2.602-15.345 0-3.572.503-7.097 1.503-10.57a44.598 44.598 0 0 1 4.184-9.876 45.064 45.064 0 0 1 6.459-8.626 43.065 43.065 0 0 1 8.409-6.859 41.27 41.27 0 0 1 9.87-4.515c3.5-1.079 7.16-1.618 10.98-1.618 3.816 0 7.165.674 10.052 2.022 2.888 1.343 5.553 3.121 8 5.319V9.171l10.938-4.479h4.624v120.904h-15.562v-9.394zM540.367 45.066h15.64v14.759c2.001-2.209 4.267-4.282 6.786-6.242a64.464 64.464 0 0 1 7.782-5.21c2.669-1.519 5.344-2.722 8.04-3.603 2.691-.881 5.236-1.322 7.636-1.322 2.349 0 4.708.42 7.082 1.249a25.137 25.137 0 0 1 6.604 3.489 23.819 23.819 0 0 1 5.252 5.283c1.467 2.032 2.421 4.246 2.867 6.646 1.317-2.302 3.115-4.463 5.391-6.501a39.028 39.028 0 0 1 7.6-5.282 44.485 44.485 0 0 1 8.808-3.562c3.079-.881 6.112-1.322 9.103-1.322 2.986 0 5.786.664 8.404 1.986a22.669 22.669 0 0 1 6.864 5.324c1.959 2.219 3.499 4.842 4.624 7.848 1.125 3.012 1.69 6.211 1.69 9.581v55.719h-15.713V70.463c0-2.199-.379-4.293-1.136-6.278-.762-1.976-1.773-3.712-3.043-5.205a14.663 14.663 0 0 0-4.484-3.562 11.7 11.7 0 0 0-5.428-1.327c-2.151 0-4.344.296-6.573.881a31.46 31.46 0 0 0-6.351 2.427 30.712 30.712 0 0 0-5.505 3.597c-1.659 1.369-2.981 2.815-3.961 4.329v58.581h-15.635V70.463c0-2.199-.384-4.293-1.141-6.278-.762-1.976-1.799-3.712-3.121-5.205a15.435 15.435 0 0 0-4.551-3.562 11.7 11.7 0 0 0-5.428-1.327c-2.006 0-4.08.311-6.205.923a34.476 34.476 0 0 0-6.242 2.462 34.61 34.61 0 0 0-5.651 3.557c-1.736 1.342-3.193 2.778-4.365 4.292v58.581h-15.64v-78.84zM724.636 77.948a150.526 150.526 0 0 0-7.014 2.494 85.731 85.731 0 0 0-7.118 3.121 70.051 70.051 0 0 0-6.64 3.748c-2.105 1.343-3.956 2.773-5.542 4.292-1.592 1.519-2.852 3.126-3.785 4.842-.928 1.716-1.394 3.5-1.394 5.366 0 1.903.357 3.722 1.068 5.464.71 1.737 1.648 3.25 2.825 4.552a13.497 13.497 0 0 0 4.075 3.084 10.765 10.765 0 0 0 4.811 1.136 17.94 17.94 0 0 0 5.023-.695 25.194 25.194 0 0 0 4.624-1.872 40.898 40.898 0 0 0 4.479-2.758 182.219 182.219 0 0 0 4.588-3.333V77.948zm15.708 45.952h-15.708v-10.793a220.107 220.107 0 0 0-5.469 4.334 44.802 44.802 0 0 1-5.801 4.038c-2.079 1.224-4.381 2.214-6.9 2.976-2.52.752-5.443 1.135-8.766 1.135-3.09 0-5.874-.502-8.378-1.508-2.488-1.001-4.619-2.385-6.382-4.142-1.762-1.763-3.11-3.847-4.033-6.242-.933-2.395-1.4-4.992-1.4-7.776 0-3.385.674-6.428 2.022-9.145 1.348-2.716 3.178-5.148 5.501-7.299 2.327-2.157 5.044-4.07 8.154-5.734a85.393 85.393 0 0 1 9.871-4.474 121.957 121.957 0 0 1 10.752-3.525 438.216 438.216 0 0 1 10.829-2.867v-4.914c0-3.567-.352-6.594-1.062-9.067-.711-2.468-1.727-4.464-3.049-5.983a11.243 11.243 0 0 0-4.811-3.266c-1.881-.658-3.997-.985-6.345-.985-2.644 0-4.795.337-6.459 1.022-1.67.689-2.976 1.586-3.93 2.716a9.169 9.169 0 0 0-1.944 3.852 18.69 18.69 0 0 0-.513 4.37c0 1.374-.109 2.691-.332 3.966-.218 1.275-.622 2.385-1.213 3.339a6.762 6.762 0 0 1-2.385 2.312c-1 .585-2.286.881-3.857.881-1.218 0-2.333-.233-3.333-.695a7.764 7.764 0 0 1-2.608-1.949c-.736-.829-1.296-1.809-1.69-2.939-.394-1.12-.591-2.349-.591-3.666 0-2.597.861-5.018 2.572-7.268 1.71-2.25 4.017-4.194 6.9-5.837 2.887-1.633 6.262-2.934 10.135-3.888 3.867-.954 7.926-1.431 12.182-1.431 5.19 0 9.57.498 13.137 1.504 3.577 1.005 6.459 2.415 8.668 4.219 2.198 1.81 3.794 4.018 4.769 6.61.98 2.592 1.467 5.454 1.467 8.585V123.9zM761.2 123.906h-8.585l33.033-40.297-27.896-38.471h18.425l19.305 26.429 21.66-26.429h8.585l-26.201 31.934 33.837 46.834h-18.497L789.759 89.11 761.2 123.906z" fill="#50173b" fill-rule="nonzero"/>
	<path d="M70.997 0l.108 81.951 70.93 41.032L70.997 0z" fill="#7c1544" fill-rule="nonzero"/>
	<path d="M142.035 122.983L71.007 82.106.005 123.024l142.03-.041z" fill="#50173b" fill-rule="nonzero"/>
	<path d="M0 123.024l70.914-41.079.077-81.94L0 123.024z" fill="#6a0c39" fill-rule="nonzero"/>
</svg>
